<svg id="Layer_1" data-name="Layer 1" xmlns="http://www.w3.org/2000/svg" viewBox="0 0 124 86.26"><defs><style>.cls-1{fill:#102477;}.cls-2{fill:#e60000;}.cls-3{fill:#fff;}</style></defs><title>Ace Mart Logo</title><rect class="cls-1" y="32.35" width="124" height="43.13"/><rect class="cls-2" width="124" height="32.4"/><path class="cls-3" d="M28.63,42.06H23.21l-.75,2.54H17.59l5.8-15.43H28.6L34.4,44.6h-5Zm-1-3.34-1.7-5.55-1.69,5.55Z" transform="translate(-13.37 -20.84)"/><path class="cls-3" d="M44.66,38.29l4.18,1.26a7.66,7.66,0,0,1-1.33,2.94,5.76,5.76,0,0,1-2.25,1.78,8.37,8.37,0,0,1-3.41.6,10,10,0,0,1-4.11-.73A6.5,6.5,0,0,1,35,41.56a8.74,8.74,0,0,1-1.16-4.71,8,8,0,0,1,2-5.89,7.77,7.77,0,0,1,5.77-2.06,7.86,7.86,0,0,1,4.58,1.18,7,7,0,0,1,2.48,3.62l-4.21.94a3.76,3.76,0,0,0-.46-1,2.93,2.93,0,0,0-4.76.17,5.48,5.48,0,0,0-.66,3,5.73,5.73,0,0,0,.78,3.51,3.07,3.07,0,0,0,4.26.19A4.73,4.73,0,0,0,44.66,38.29Z" transform="translate(-13.37 -20.84)"/><path class="cls-3" d="M50,29.17H62.79v3.29h-8v2.46h7.43v3.14H54.78v3H63V44.6H50Z" transform="translate(-13.37 -20.84)"/><path class="cls-3" d="M70.44,29.17h6.27l2.42,9.39,2.4-9.39H87.8V44.6H83.9V32.83l-3,11.77H77.35l-3-11.77V44.6H70.44Z" transform="translate(-13.37 -20.84)"/><path class="cls-3" d="M99.19,42.06H93.78L93,44.6H88.16L94,29.17h5.2L105,44.6h-5Zm-1-3.34-1.7-5.55-1.69,5.55Z" transform="translate(-13.37 -20.84)"/><path class="cls-3" d="M105.4,44.6V29.17h7.95a11.32,11.32,0,0,1,3.38.38,3.55,3.55,0,0,1,1.88,1.4,4.35,4.35,0,0,1-1.34,6.23,5.49,5.49,0,0,1-1.67.61,4.71,4.71,0,0,1,1.24.57,4.8,4.8,0,0,1,.76.81,6,6,0,0,1,.67,1l2.31,4.47h-5.39l-2.55-4.71a3.58,3.58,0,0,0-.86-1.19,2,2,0,0,0-1.17-.36h-.42V44.6Zm4.79-9.18h2a7.08,7.08,0,0,0,1.26-.21,1.24,1.24,0,0,0,.78-.48,1.44,1.44,0,0,0,.3-.9,1.42,1.42,0,0,0-.48-1.15,2.88,2.88,0,0,0-1.78-.4h-2.09Z" transform="translate(-13.37 -20.84)"/><path class="cls-3" d="M119.69,29.17h14.5V33h-4.86V44.6h-4.77V33h-4.87Z" transform="translate(-13.37 -20.84)"/><path class="cls-3" d="M17.75,71V59.81h5.74a8.4,8.4,0,0,1,2.44.27,2.57,2.57,0,0,1,1.36,1,3,3,0,0,1,.52,1.8,3.17,3.17,0,0,1-.39,1.61,3.25,3.25,0,0,1-1.09,1.09,4.62,4.62,0,0,1-1.21.44,3.26,3.26,0,0,1,.89.41,3.31,3.31,0,0,1,.55.59,3.66,3.66,0,0,1,.49.69L28.72,71h-3.9L23,67.55a2.59,2.59,0,0,0-.62-.86,1.47,1.47,0,0,0-.85-.26h-.3V71Zm3.46-6.63h1.45a4.61,4.61,0,0,0,.91-.16.89.89,0,0,0,.56-.34A1.13,1.13,0,0,0,24,62.35a2.11,2.11,0,0,0-1.29-.29H21.21Z" transform="translate(-13.37 -20.84)"/><path class="cls-3" d="M29.81,59.81H39v2.38H33.26V64h5.36v2.28H33.26v2.19h6V71h-9.4Z" transform="translate(-13.37 -20.84)"/><path class="cls-3" d="M40.47,67.27l3.27-.21a2.46,2.46,0,0,0,.44,1.22A1.82,1.82,0,0,0,45.7,69a1.66,1.66,0,0,0,1.13-.35,1,1,0,0,0,.4-.8,1,1,0,0,0-.38-.78,4.48,4.48,0,0,0-1.76-.64A7.38,7.38,0,0,1,41.86,65a2.72,2.72,0,0,1-1-2.15,2.94,2.94,0,0,1,.5-1.62,3.27,3.27,0,0,1,1.5-1.2,7,7,0,0,1,2.74-.44,5.6,5.6,0,0,1,3.26.79,3.43,3.43,0,0,1,1.33,2.53L47,63.13A1.75,1.75,0,0,0,46.42,62a1.71,1.71,0,0,0-1.14-.34,1.41,1.41,0,0,0-.91.25.79.79,0,0,0-.3.62.61.61,0,0,0,.25.48,2.83,2.83,0,0,0,1.16.41,14.39,14.39,0,0,1,3.23,1,3.44,3.44,0,0,1,1.42,1.24,3.1,3.1,0,0,1,.45,1.65,3.59,3.59,0,0,1-.59,2,3.75,3.75,0,0,1-1.66,1.37,6.76,6.76,0,0,1-2.69.47c-1.89,0-3.21-.37-3.94-1.1A4.26,4.26,0,0,1,40.47,67.27Z" transform="translate(-13.37 -20.84)"/><path class="cls-3" d="M51.53,59.81H62v2.75H58.49V71H55v-8.4H51.53Z" transform="translate(-13.37 -20.84)"/><path class="cls-3" d="M69.36,69.12H65.45L64.9,71H61.39l4.19-11.15h3.75L73.52,71h-3.6Zm-.72-2.41-1.23-4-1.21,4Z" transform="translate(-13.37 -20.84)"/><path class="cls-3" d="M81.34,59.81h3.44v6.64a5.52,5.52,0,0,1-.31,1.87,4.09,4.09,0,0,1-1,1.53,3.91,3.91,0,0,1-1.38.93,7.2,7.2,0,0,1-2.42.37A14.35,14.35,0,0,1,77.94,71a4.44,4.44,0,0,1-1.61-.45,3.9,3.9,0,0,1-1.18-1,3.58,3.58,0,0,1-.74-1.28,6.79,6.79,0,0,1-.32-1.89V59.81h3.44v6.8A1.91,1.91,0,0,0,78,68a1.83,1.83,0,0,0,1.4.52,1.9,1.9,0,0,0,1.4-.51,1.94,1.94,0,0,0,.5-1.43Z" transform="translate(-13.37 -20.84)"/><path class="cls-3" d="M87.11,71V59.81h5.74a8.45,8.45,0,0,1,2.44.27,2.61,2.61,0,0,1,1.36,1,3,3,0,0,1,.52,1.8,3,3,0,0,1-1.49,2.7,4.36,4.36,0,0,1-1.21.44,3.51,3.51,0,0,1,.9.41,3.31,3.31,0,0,1,.55.59,4,4,0,0,1,.48.69L98.07,71H94.18l-1.84-3.41a2.45,2.45,0,0,0-.63-.86,1.44,1.44,0,0,0-.84-.26h-.3V71Zm3.46-6.63H92a4.61,4.61,0,0,0,.91-.16.89.89,0,0,0,.56-.34,1.08,1.08,0,0,0,.22-.65,1,1,0,0,0-.35-.83,2.05,2.05,0,0,0-1.28-.29H90.57Z" transform="translate(-13.37 -20.84)"/><path class="cls-3" d="M106,69.12h-3.91L101.57,71H98.06l4.19-11.15H106L110.19,71h-3.6Zm-.72-2.41-1.23-4-1.21,4Z" transform="translate(-13.37 -20.84)"/><path class="cls-3" d="M111.31,59.81h3.22l4.2,6.17V59.81H122V71h-3.24l-4.18-6.12V71h-3.24Z" transform="translate(-13.37 -20.84)"/><path class="cls-3" d="M123.48,59.81H134v2.75h-3.51V71H127v-8.4h-3.51Z" transform="translate(-13.37 -20.84)"/><path class="cls-3" d="M42,86l3.28-.21A2.46,2.46,0,0,0,45.71,87a1.82,1.82,0,0,0,1.52.68,1.71,1.71,0,0,0,1.14-.35,1.06,1.06,0,0,0,.4-.8,1,1,0,0,0-.38-.78,4.62,4.62,0,0,0-1.77-.64,7.38,7.38,0,0,1-3.23-1.36,2.71,2.71,0,0,1-1-2.15A2.93,2.93,0,0,1,42.91,80a3.37,3.37,0,0,1,1.5-1.2,7,7,0,0,1,2.74-.44,5.58,5.58,0,0,1,3.26.79,3.44,3.44,0,0,1,1.34,2.53l-3.25.19A1.79,1.79,0,0,0,48,80.73a1.75,1.75,0,0,0-1.15-.34,1.36,1.36,0,0,0-.9.25.77.77,0,0,0-.31.62.64.64,0,0,0,.25.48,2.9,2.9,0,0,0,1.16.41,14.51,14.51,0,0,1,3.24,1,3.5,3.5,0,0,1,1.42,1.24A3.18,3.18,0,0,1,52.11,86a3.59,3.59,0,0,1-.59,2,3.75,3.75,0,0,1-1.66,1.37,6.7,6.7,0,0,1-2.68.47c-1.9,0-3.21-.37-3.94-1.1A4.27,4.27,0,0,1,42,86Z" transform="translate(-13.37 -20.84)"/><path class="cls-3" d="M61.1,78.5h3.44v6.64A5.52,5.52,0,0,1,64.23,87a4,4,0,0,1-1,1.53,3.75,3.75,0,0,1-1.38.93,7.1,7.1,0,0,1-2.41.37,14.35,14.35,0,0,1-1.77-.12,4.44,4.44,0,0,1-1.61-.45,3.79,3.79,0,0,1-1.18-1A3.58,3.58,0,0,1,54.17,87a6.79,6.79,0,0,1-.32-1.89V78.5h3.44v6.8a1.91,1.91,0,0,0,.51,1.42,1.83,1.83,0,0,0,1.4.52,1.9,1.9,0,0,0,1.4-.51,1.94,1.94,0,0,0,.5-1.43Z" transform="translate(-13.37 -20.84)"/><path class="cls-3" d="M66.81,78.5h5.72a3.92,3.92,0,0,1,2.8.89,3.3,3.3,0,0,1,.94,2.53,3.42,3.42,0,0,1-1,2.64,4.42,4.42,0,0,1-3.1,1H70.27v4.14H66.81Zm3.46,4.75h.84a2.19,2.19,0,0,0,1.4-.34,1.12,1.12,0,0,0,.4-.89,1.21,1.21,0,0,0-.35-.89,1.82,1.82,0,0,0-1.31-.36h-1Z" transform="translate(-13.37 -20.84)"/><path class="cls-3" d="M78.05,78.5h5.73a3.92,3.92,0,0,1,2.8.89,3.34,3.34,0,0,1,.93,2.53,3.45,3.45,0,0,1-1,2.64,4.42,4.42,0,0,1-3.1,1H81.51v4.14H78.05Zm3.46,4.75h.85a2.19,2.19,0,0,0,1.4-.34,1.12,1.12,0,0,0,.4-.89,1.25,1.25,0,0,0-.35-.89,1.83,1.83,0,0,0-1.32-.36h-1Z" transform="translate(-13.37 -20.84)"/><path class="cls-3" d="M89.32,78.5h3.44v8.4h5.38v2.75H89.32Z" transform="translate(-13.37 -20.84)"/><path class="cls-3" d="M97.38,78.5h3.82l2.25,3.76,2.25-3.76h3.81L105.17,85v4.67h-3.45V85Z" transform="translate(-13.37 -20.84)"/><path class="cls-3" d="M134.48,42.27a1.92,1.92,0,1,1-1.91-1.87A1.87,1.87,0,0,1,134.48,42.27Zm-3.35,0a1.44,1.44,0,1,0,1.44-1.49A1.44,1.44,0,0,0,131.13,42.27Zm1.15,1h-.44V41.38a3.32,3.32,0,0,1,.72-.06,1.17,1.17,0,0,1,.65.14.53.53,0,0,1,.18.41.48.48,0,0,1-.39.43v0a.56.56,0,0,1,.35.46,1.55,1.55,0,0,0,.13.47H133a1.34,1.34,0,0,1-.15-.46.34.34,0,0,0-.39-.3h-.2Zm0-1.06h.2c.24,0,.43-.08.43-.28s-.12-.28-.39-.28l-.24,0Z" transform="translate(-13.37 -20.84)"/><path class="cls-1" d="M13.71,99.06h4.75v1.33H15.64v1.09h2.41v1.25H15.64v2.54H13.71Z" transform="translate(-13.37 -20.84)"/><path class="cls-1" d="M20.81,102.23l-1.65-.18a2.06,2.06,0,0,1,.26-.68,1.57,1.57,0,0,1,.51-.43,2.51,2.51,0,0,1,.65-.2,5.14,5.14,0,0,1,.9-.07,8.15,8.15,0,0,1,1.25.08,1.61,1.61,0,0,1,.79.37,1.2,1.2,0,0,1,.34.54,1.81,1.81,0,0,1,.13.67v2a2.17,2.17,0,0,0,0,.5,2.36,2.36,0,0,0,.18.46H22.59a1.23,1.23,0,0,1-.13-.26,2,2,0,0,1-.06-.29,2.42,2.42,0,0,1-.67.47,2.93,2.93,0,0,1-1.07.18,1.76,1.76,0,0,1-1.22-.37,1.18,1.18,0,0,1-.42-.92,1.2,1.2,0,0,1,.3-.84,2,2,0,0,1,1.11-.49c.65-.13,1.07-.23,1.26-.28a6.16,6.16,0,0,0,.61-.2.61.61,0,0,0-.13-.45.68.68,0,0,0-.46-.13,1.22,1.22,0,0,0-.64.14A.68.68,0,0,0,20.81,102.23Zm1.49.91c-.24.08-.48.16-.74.22a1.74,1.74,0,0,0-.67.28.44.44,0,0,0-.14.31.46.46,0,0,0,.14.34.66.66,0,0,0,.42.13,1.14,1.14,0,0,0,.54-.14.9.9,0,0,0,.35-.35,1.09,1.09,0,0,0,.1-.52Z" transform="translate(-13.37 -20.84)"/><path class="cls-1" d="M25.12,100.77h1.61v.66a2.18,2.18,0,0,1,.7-.59,1.89,1.89,0,0,1,.86-.17,1.6,1.6,0,0,1,.85.19,1.36,1.36,0,0,1,.51.57,2.45,2.45,0,0,1,.75-.6,1.82,1.82,0,0,1,.82-.16,1.47,1.47,0,0,1,1.13.43,1.88,1.88,0,0,1,.41,1.34v2.83H31v-2.56a.72.72,0,0,0-.12-.46.54.54,0,0,0-.43-.23.6.6,0,0,0-.49.22,1.06,1.06,0,0,0-.19.71v2.32H28.07v-2.48a1.71,1.71,0,0,0,0-.4.53.53,0,0,0-.19-.27.52.52,0,0,0-.32-.11.62.62,0,0,0-.49.23,1.1,1.1,0,0,0-.19.73v2.3H25.12Z" transform="translate(-13.37 -20.84)"/><path class="cls-1" d="M33.93,99.06h1.73v1.17H33.93Zm0,1.71h1.73v4.5H33.93Z" transform="translate(-13.37 -20.84)"/><path class="cls-1" d="M36.9,99.06h1.73v6.21H36.9Z" transform="translate(-13.37 -20.84)"/><path class="cls-1" d="M39.46,100.77h1.82l.93,3,.86-3h1.71L43,105.58a3,3,0,0,1-.62,1.11,2,2,0,0,1-1.37.41,9.41,9.41,0,0,1-1.16-.1l-.13-1.21a2.68,2.68,0,0,0,.83.12.75.75,0,0,0,.49-.14,1,1,0,0,0,.32-.5Z" transform="translate(-13.37 -20.84)"/><path class="cls-1" d="M48.19,102.17A2.95,2.95,0,0,1,51.4,99a3.28,3.28,0,0,1,2.39.83,3.16,3.16,0,0,1,.84,2.34,3.73,3.73,0,0,1-.37,1.78A2.53,2.53,0,0,1,53.2,105a3.45,3.45,0,0,1-1.72.39,3.9,3.9,0,0,1-1.75-.34A2.57,2.57,0,0,1,48.62,104,3.44,3.44,0,0,1,48.19,102.17Zm1.92,0a2.1,2.1,0,0,0,.35,1.35,1.19,1.19,0,0,0,.95.41,1.18,1.18,0,0,0,1-.4,2.28,2.28,0,0,0,.34-1.45,2,2,0,0,0-.35-1.28,1.22,1.22,0,0,0-1-.41,1.17,1.17,0,0,0-.94.42A2.1,2.1,0,0,0,50.11,102.18Z" transform="translate(-13.37 -20.84)"/><path class="cls-1" d="M55.12,100.77h1.67l.73,2.83.91-2.83H60l.95,2.84.73-2.84h1.66l-1.66,4.5H60.13l-.91-2.71-.88,2.71H56.8Z" transform="translate(-13.37 -20.84)"/><path class="cls-1" d="M63.91,100.77h1.6v.73a2.46,2.46,0,0,1,.73-.64,1.93,1.93,0,0,1,.9-.19,1.48,1.48,0,0,1,1.12.42,1.88,1.88,0,0,1,.41,1.32v2.86H66.93V102.8a.9.9,0,0,0-.15-.6.56.56,0,0,0-.44-.18.63.63,0,0,0-.51.24,1.37,1.37,0,0,0-.2.85v2.16H63.91Z" transform="translate(-13.37 -20.84)"/><path class="cls-1" d="M74.78,103.45H71.32a1.11,1.11,0,0,0,.22.62.85.85,0,0,0,.66.29.91.91,0,0,0,.48-.13A1.07,1.07,0,0,0,73,104l1.7.16a2.44,2.44,0,0,1-.94,1,3.4,3.4,0,0,1-1.58.29,3.21,3.21,0,0,1-1.41-.25,2,2,0,0,1-.85-.8,2.39,2.39,0,0,1-.34-1.29,2.29,2.29,0,0,1,.68-1.71,2.55,2.55,0,0,1,1.87-.65,3.24,3.24,0,0,1,1.52.29,2,2,0,0,1,.86.85,3.15,3.15,0,0,1,.29,1.44ZM73,102.62a1.09,1.09,0,0,0-.27-.71.74.74,0,0,0-.57-.22.77.77,0,0,0-.66.33,1.21,1.21,0,0,0-.2.6Z" transform="translate(-13.37 -20.84)"/><path class="cls-1" d="M80.39,99.06v6.21H78.78v-.66a2.37,2.37,0,0,1-.62.57,1.79,1.79,0,0,1-.84.19,1.59,1.59,0,0,1-1.4-.7,2.85,2.85,0,0,1-.49-1.7,2.47,2.47,0,0,1,.54-1.71,1.74,1.74,0,0,1,1.36-.59,1.86,1.86,0,0,1,.73.13,1.7,1.7,0,0,1,.59.41V99.06Zm-1.73,4a1.17,1.17,0,0,0-.22-.79.7.7,0,0,0-.57-.26.63.63,0,0,0-.51.25,1.36,1.36,0,0,0-.2.84,1.25,1.25,0,0,0,.21.8.62.62,0,0,0,.52.26.71.71,0,0,0,.55-.26A1.26,1.26,0,0,0,78.66,103Z" transform="translate(-13.37 -20.84)"/><path class="cls-1" d="M84.28,103.22l1.82-.12a1.33,1.33,0,0,0,.25.68,1,1,0,0,0,.84.38.94.94,0,0,0,.64-.2.54.54,0,0,0,.22-.44.59.59,0,0,0-.21-.44,2.69,2.69,0,0,0-1-.36,4.25,4.25,0,0,1-1.8-.75,1.51,1.51,0,0,1-.54-1.2,1.62,1.62,0,0,1,.28-.91,1.88,1.88,0,0,1,.83-.67A4,4,0,0,1,87.15,99a3.17,3.17,0,0,1,1.82.44,1.92,1.92,0,0,1,.74,1.41l-1.81.11a1,1,0,0,0-.3-.61,1,1,0,0,0-.64-.19.73.73,0,0,0-.5.14.41.41,0,0,0-.17.34.33.33,0,0,0,.14.27,1.55,1.55,0,0,0,.64.23,8.48,8.48,0,0,1,1.81.55,2,2,0,0,1,.79.69,1.79,1.79,0,0,1,.25.92,2,2,0,0,1-.33,1.1,2.14,2.14,0,0,1-.93.77,3.77,3.77,0,0,1-1.5.26,3.05,3.05,0,0,1-2.19-.61A2.39,2.39,0,0,1,84.28,103.22Z" transform="translate(-13.37 -20.84)"/><path class="cls-1" d="M90.91,99.06h1.73v1.17H90.91Zm0,1.71h1.73v4.5H90.91Z" transform="translate(-13.37 -20.84)"/><path class="cls-1" d="M93.82,100.77h1.61v.73a2.44,2.44,0,0,1,.72-.64,1.93,1.93,0,0,1,.9-.19,1.5,1.5,0,0,1,1.13.42,1.88,1.88,0,0,1,.4,1.32v2.86H96.85V102.8a.9.9,0,0,0-.16-.6.56.56,0,0,0-.44-.18.63.63,0,0,0-.51.24,1.37,1.37,0,0,0-.2.85v2.16H93.82Z" transform="translate(-13.37 -20.84)"/><path class="cls-1" d="M103.05,103.51l1.64.19a2.23,2.23,0,0,1-.45.88,2.06,2.06,0,0,1-.79.59,3.08,3.08,0,0,1-1.22.2,4.4,4.4,0,0,1-1.19-.13,2.12,2.12,0,0,1-.83-.43,2.28,2.28,0,0,1-.53-.7,2.49,2.49,0,0,1-.2-1.07,2.52,2.52,0,0,1,.24-1.16,1.92,1.92,0,0,1,.47-.6,2.3,2.3,0,0,1,.62-.41,3.66,3.66,0,0,1,1.3-.2,3,3,0,0,1,1.68.39,2.12,2.12,0,0,1,.81,1.16l-1.62.21a.74.74,0,0,0-.28-.43.91.91,0,0,0-.54-.15.87.87,0,0,0-.7.31,1.41,1.41,0,0,0-.26.93,1.22,1.22,0,0,0,.26.84,1,1,0,0,0,1.24.11A1,1,0,0,0,103.05,103.51Z" transform="translate(-13.37 -20.84)"/><path class="cls-1" d="M110.56,103.45H107.1a1.11,1.11,0,0,0,.23.62.81.81,0,0,0,.65.29.91.91,0,0,0,.48-.13.86.86,0,0,0,.3-.28l1.7.16a2.44,2.44,0,0,1-.94,1,3.37,3.37,0,0,1-1.58.29,3.21,3.21,0,0,1-1.41-.25,2.09,2.09,0,0,1-.85-.8,2.48,2.48,0,0,1-.34-1.29,2.29,2.29,0,0,1,.68-1.71,2.55,2.55,0,0,1,1.87-.65,3.31,3.31,0,0,1,1.53.29,2,2,0,0,1,.85.85,3.15,3.15,0,0,1,.29,1.44Zm-1.75-.83a1.2,1.2,0,0,0-.27-.71.78.78,0,0,0-.58-.22.8.8,0,0,0-.66.33,1.21,1.21,0,0,0-.2.6Z" transform="translate(-13.37 -20.84)"/><path class="cls-1" d="M118.16,99v6.32h-1.75v-4.14a5.53,5.53,0,0,1-.82.52,6.83,6.83,0,0,1-1,.38v-1.41a4.06,4.06,0,0,0,1.37-.69,2.75,2.75,0,0,0,.77-1Z" transform="translate(-13.37 -20.84)"/><path class="cls-1" d="M120.19,103.88l1.72-.22a.87.87,0,0,0,.23.51.54.54,0,0,0,.39.15.72.72,0,0,0,.65-.42,3.86,3.86,0,0,0,.25-1.31,1.88,1.88,0,0,1-.63.46,1.81,1.81,0,0,1-.76.15,1.89,1.89,0,0,1-1.41-.59,2.09,2.09,0,0,1-.57-1.5,2.29,2.29,0,0,1,.29-1.13,1.94,1.94,0,0,1,.81-.77,2.87,2.87,0,0,1,1.29-.26,3,3,0,0,1,1.49.32,2.16,2.16,0,0,1,.9,1,4.17,4.17,0,0,1,.34,1.84,3.59,3.59,0,0,1-.71,2.47,2.5,2.5,0,0,1-2,.78,3.33,3.33,0,0,1-1.17-.17,1.75,1.75,0,0,1-.71-.51A2.22,2.22,0,0,1,120.19,103.88Zm3.18-2.78a1.15,1.15,0,0,0-.25-.79.8.8,0,0,0-.62-.28.7.7,0,0,0-.57.26,1.14,1.14,0,0,0-.23.77,1.18,1.18,0,0,0,.24.8.73.73,0,0,0,.58.27.77.77,0,0,0,.61-.26A1.13,1.13,0,0,0,123.37,101.1Z" transform="translate(-13.37 -20.84)"/><path class="cls-1" d="M126,99.06h5v1.16a6.28,6.28,0,0,0-1.1,1.29,7.07,7.07,0,0,0-.84,1.87,8.54,8.54,0,0,0-.34,1.89h-1.72a10.29,10.29,0,0,1,.64-2.55,9.67,9.67,0,0,1,1.39-2.21H126Z" transform="translate(-13.37 -20.84)"/><path class="cls-1" d="M132.56,99.06h4.1v1.37h-2.78l-.15.94a3.28,3.28,0,0,1,.57-.21,2.74,2.74,0,0,1,.56-.06,2,2,0,0,1,1.51.56,1.9,1.9,0,0,1,.59,1.42,2.42,2.42,0,0,1-.3,1.16,2.11,2.11,0,0,1-.85.85,3.07,3.07,0,0,1-1.41.29,4,4,0,0,1-1.05-.12,2.16,2.16,0,0,1-.75-.35,2.05,2.05,0,0,1-.5-.52,2.76,2.76,0,0,1-.31-.73l1.74-.19a1,1,0,0,0,.3.64.8.8,0,0,0,.55.22.73.73,0,0,0,.6-.28,1.5,1.5,0,0,0,0-1.63.83.83,0,0,0-.63-.26,1.09,1.09,0,0,0-.49.13,1.43,1.43,0,0,0-.38.32L132,102.4Z" transform="translate(-13.37 -20.84)"/></svg>